:SAMPLES-PER-SECOND 30
:FULLY-SPECIFIED
:DEGREES
51
root  39.5091 38.5498 -4.10294 -171.884 -71.7771 178.97
RightUpLeg  5.23793 -12.4563 -7.53107
RightLeg  16.9256 4.67173 2.77594
RightFoot  -18.6809 0.247177 5.7701
RightToes  0.000482159 0.542163 -0.142577
Spine  17.3963 1.41322 9.70338
Spine1  6.95024 5.00845 -8.64117
HEad  -22.8852 6.55804 -3.45598
LeftShoulder1  7.41765 -12.9279 -38.9541
LeftArm  -9.64852 35.8995 -17.965
LeftForeArm  50.0346 -55.7546 -12.2171
LeftHand  -0.25398 0.0180481 5.50724
RightShoulder  3.65205 7.23816 27.9918
RightArm  -11.2311 -3.30345 34.8357
RightForeArm  9.26582 61.2702 20.2572
RightHand  -2.89966 7.79611 -25.5318
LeftUpLeg  -32.2678 11.5396 -5.27242
LeftLeg  31.1344 7.48989 5.20581
LeftFoot  -12.789 0.0393273 -2.91728
LeftToes  1.06248e-005 4.65856e-005 -8.18499e-006
52
root  37.3429 38.3789 -4.31352 -171.641 -70.2621 178.725
RightUpLeg  6.03305 -12.395 -9.52813
RightLeg  20.8113 7.73952 3.12271
RightFoot  -16.2495 0.343978 11.3053
RightToes  0.000482159 0.542163 -0.142577
Spine  16.5263 2.09599 8.11789
Spine1  7.27457 5.58326 -8.87298
HEad  -22.9541 7.18526 -2.45844
LeftShoulder1  7.54899 -13.5816 -38.0295
LeftArm  -12.3292 39.6573 -19.9172
LeftForeArm  50.0602 -56.8769 -12.8527
LeftHand  -0.25398 0.0180481 5.50724
RightShoulder  3.84817 7.48657 29.0228
RightArm  -7.93926 -6.11292 35.0889
RightForeArm  4.54568 55.9788 16.5281
RightHand  -2.55858 7.15805 -23.7399
LeftUpLeg  -31.2225 13.624 -6.31285
LeftLeg  32.441 8.60207 6.19989
LeftFoot  -13.6456 0.0436485 -1.95163
LeftToes  1.06248e-005 4.65856e-005 -8.18499e-006
53
root  35.0714 38.2895 -4.4714 -172.471 -68.7112 179.735
RightUpLeg  2.70223 -8.83482 -10.1706
RightLeg  30.4485 4.92619 2.73186
RightFoot  -7.38126 -0.528886 14.6624
RightToes  0.000482159 0.542163 -0.142577
Spine  15.6287 2.40962 6.44596
Spine1  7.81529 5.58254 -8.27687
HEad  -23.3559 8.56919 -2.23426
LeftShoulder1  7.87113 -14.0598 -38.6338
LeftArm  -17.0777 40.2528 -23.6222
LeftForeArm  47.2136 -54.5949 -11.8821
LeftHand  -0.25398 0.0180481 5.50724
RightShoulder  4.2196 7.91828 30.9948
RightArm  -4.09666 -9.18669 34.9884
RightForeArm  2.40684 48.8132 12.6893
RightHand  -2.29028 6.79841 -21.9801
LeftUpLeg  -28.7126 14.1898 -6.48079
LeftLeg  34.071 10.2703 7.74713
LeftFoot  -15.6092 0.0833626 -0.364758
LeftToes  1.06248e-005 4.65856e-005 -8.18499e-006
54
root  32.8143 38.0435 -4.61464 -172.481 -67.3427 179.505
RightUpLeg  -4.63559 -5.26025 -10.6364
RightLeg  45.0602 0.324193 0.0175789
RightFoot  7.18744 -1.82015 11.7431
RightToes  0.000482159 0.542163 -0.142577
Spine  15.9236 2.32937 3.87642
Spine1  7.7366 4.87342 -7.14767
HEad  -24.6006 10.3193 -2.25195
LeftShoulder1  8.35648 -14.1533 -41.0168
LeftArm  -21.6892 37.0837 -26.337
LeftForeArm  43.5628 -51.638 -10.7398
LeftHand  -0.25398 0.0180481 5.50724
RightShoulder  4.48105 8.05487 32.8319
RightArm  -1.17779 -13.5909 36.0093
RightForeArm  0.390208 41.428 9.83602
RightHand  -2.44986 7.46933 -22.256
LeftUpLeg  -25.4668 13.2204 -6.9063
LeftLeg  36.6445 12.2708 10.0126
LeftFoot  -19.4772 0.124514 0.196527
LeftToes  1.06248e-005 4.65856e-005 -8.18499e-006
55
root  30.7208 37.5158 -4.80023 -170.23 -66.4383 176.247
RightUpLeg  -13.9379 -2.32456 -11.4646
RightLeg  60.0383 -1.27256 -2.76603
RightFoot  15.9232 -1.31823 5.72849
RightToes  0.000482159 0.542163 -0.142577
Spine  17.7288 2.09088 -0.340051
Spine1  7.16366 3.60349 -5.94406
HEad  -27.2032 12.19 -2.00683
LeftShoulder1  8.95123 -14.1153 -44.2376
LeftArm  -25.0687 30.3061 -26.4307
LeftForeArm  42.2561 -50.1138 -10.1853
LeftHand  -0.25398 0.0180481 5.50724
RightShoulder  4.7157 8.10007 34.6753
RightArm  0.783179 -20.0236 37.472
RightForeArm  -4.35598 35.7682 8.3282
RightHand  -2.83086 8.44088 -23.8546
LeftUpLeg  -22.1022 11.2226 -8.60904
LeftLeg  39.8712 14.2089 12.7602
LeftFoot  -24.4861 0.00217781 -1.22172
LeftToes  1.06248e-005 4.65856e-005 -8.18499e-006
56
root  28.6029 37.1117 -5.02754 -168.079 -66.5043 172.898
RightUpLeg  -23.7675 -0.784082 -11.0178
RightLeg  71.1593 -0.963637 -4.01578
RightFoot  13.9762 -0.0789104 0.673233
RightToes  0.000482159 0.542163 -0.142577
Spine  19.6713 1.43337 -4.23323
Spine1  7.07319 1.79083 -3.9915
HEad  -30.83 14.2977 -1.72618
LeftShoulder1  9.47003 -14.1344 -46.8517
LeftArm  -28.1124 20.334 -24.5073
LeftForeArm  43.2295 -50.0577 -10.0598
LeftHand  -0.25398 0.0180481 5.50724
RightShoulder  5.1434 8.50539 36.8222
RightArm  4.78526 -27.6097 37.9351
RightForeArm  -10.256 31.297 7.4135
RightHand  -3.31323 9.94497 -25.1475
LeftUpLeg  -17.502 8.80304 -10.4476
LeftLeg  40.6357 15.9311 14.5324
LeftFoot  -28.2751 -0.258457 -2.90285
LeftToes  1.06248e-005 4.65856e-005 -8.18499e-006
57
root  26.4142 36.7405 -5.31335 -166.534 -67.6108 170.496
RightUpLeg  -33.3664 -0.544907 -9.18832
RightLeg  76.1059 -0.864244 -5.35246
RightFoot  6.7998 0.13588 -0.334064
RightToes  0.000482159 0.542163 -0.142577
Spine  21.0348 0.441045 -7.68141
Spine1  7.43208 -0.700107 -0.865672
HEad  -34.1947 16.7929 -2.10215
LeftShoulder1  9.55654 -14.0415 -47.545
LeftArm  -30.9547 9.23165 -22.3927
LeftForeArm  45.5177 -53.7253 -11.604
LeftHand  -0.25398 0.0180481 5.50724
RightShoulder  5.38464 8.786 37.7942
RightArm  10.3195 -36.7325 37.9403
RightForeArm  -13.079 28.0564 6.71636
RightHand  -3.86555 11.9319 -25.9413
LeftUpLeg  -12.3613 7.31344 -11.7035
LeftLeg  39.96 16.5257 14.6926
LeftFoot  -30.9949 -0.37681 -3.2714
LeftToes  1.06248e-005 4.65856e-005 -8.18499e-006
58
root  24.0972 36.1976 -5.66723 -165.85 -69.7352 169.167
RightUpLeg  -41.6967 -1.226 -6.75861
RightLeg  74.8933 -1.48202 -7.30837
RightFoot  0.764432 -0.29184 2.69904
RightToes  0.000482159 0.542163 -0.142577
Spine  22.3779 -0.818142 -11.1256
Spine1  6.68292 -3.98255 3.4158
HEad  -36.3212 20.1265 -3.54348
LeftShoulder1  8.88502 -13.6103 -45.2356
LeftArm  -33.0716 0.443813 -21.9256
LeftForeArm  52.6843 -63.5784 -17.6645
LeftHand  -0.25398 0.0180481 5.50724
RightShoulder  4.81726 8.00896 35.8223
RightArm  11.6758 -48.6413 37.3455
RightForeArm  -11.687 29.4966 7.01542
RightHand  -4.54989 13.6109 -27.7134
LeftUpLeg  -6.84731 7.64347 -11.7272
LeftLeg  39.2043 15.3548 13.4068
LeftFoot  -34.595 -0.434565 -3.11813
LeftToes  1.06248e-005 4.65856e-005 -8.18499e-006
59
root  21.5183 35.8674 -6.01449 -170.568 -73.0695 173.352
RightUpLeg  -47.7621 -2.49548 -2.64948
RightLeg  67.6413 -2.54244 -7.6267
RightFoot  -1.75916 -0.282477 3.19834
RightToes  0.000482159 0.542163 -0.142577
Spine  24.191 -2.9056 -12.9514
Spine1  4.36021 -8.09935 9.11944
HEad  -37.0689 25.3453 -6.11757
LeftShoulder1  7.56228 -12.8991 -39.8386
LeftArm  -35.4272 -4.54529 -22.7984
LeftForeArm  71.1087 -74.8539 -33.0637
LeftHand  -0.25398 0.0180481 5.50724
RightShoulder  3.63474 6.35064 30.8848
RightArm  11.1038 -61.1016 32.1625
RightForeArm  -10.0562 37.3061 9.14442
RightHand  -5.66396 15.3886 -31.2905
LeftUpLeg  0.525519 7.78641 -8.96368
LeftLeg  35.6967 13.7988 10.8188
LeftFoot  -38.149 -0.744499 -4.0804
LeftToes  1.06248e-005 4.65856e-005 -8.18499e-006
60
root  18.5403 35.8286 -6.37182 174.636 -76.5294 -172.436
RightUpLeg  -49.7463 -3.24446 1.86741
RightLeg  54.655 -1.77017 -3.36244
RightFoot  -2.1515 -0.327712 3.85628
RightToes  0.000482159 0.542163 -0.142577
Spine  25.6855 -5.98423 -13.204
Spine1  1.89075 -12.8227 15.9108
HEad  -36.6191 32.7877 -9.80786
LeftShoulder1  6.19028 -12.209 -33.3638
LeftArm  -38.7226 -5.41125 -22.6282
LeftForeArm  123.046 -81.2854 -85.4997
LeftHand  -0.25398 0.0180481 5.50724
RightShoulder  2.52988 5.00661 23.5641
RightArm  15.6302 -69.7461 20.0732
RightForeArm  -8.36539 49.1435 13.6405
RightHand  -6.86668 17.1883 -34.7119
LeftUpLeg  9.8177 5.88626 -4.05528
LeftLeg  29.0937 12.6853 7.87676
LeftFoot  -38.2261 -1.21806 -6.11773
LeftToes  1.06248e-005 4.65856e-005 -8.18499e-006
61
root  14.9766 35.6404 -6.79192 154.076 -78.0274 -152.836
RightUpLeg  -47.2472 -2.869 3.81965
RightLeg  41.6244 2.03614 1.74907
RightFoot  -0.980496 -0.872395 9.44362
RightToes  0.000482159 0.542163 -0.142577
Spine  25.662 -9.26297 -12.8565
Spine1  0.600222 -16.9286 22.2284
HEad  -35.7609 40.2418 -14.3243
LeftShoulder1  5.47445 -11.8058 -29.727
LeftArm  -39.4044 -1.20263 -21.7398
LeftForeArm  175.204 -74.1563 -147.379
LeftHand  -0.25398 0.0180481 5.50724
RightShoulder  1.70002 4.27471 15.0363
RightArm  15.2304 -73.5162 13.5337
RightForeArm  0.906445 62.5743 22.8533
RightHand  -7.04001 17.0301 -35.7287
LeftUpLeg  19.0957 3.7375 0.293759
LeftLeg  24.5609 12.583 6.49739
LeftFoot  -32.7407 -1.07779 -6.65146
LeftToes  1.06248e-005 4.65856e-005 -8.18499e-006
